HIERARCHY
ROOT hip
{
	OFFSET 0.000000 103.560692 0.219151
	CHANNELS 6 Xposition Yposition Zposition Zrotation Xrotation Yrotation
	JOINT pelvis
	{
		OFFSET 0.000000 1.955040 1.591925
		CHANNELS 3 Zrotation Xrotation Yrotation
		JOINT lThigh
		{
			OFFSET 8.341582 -7.629402 -0.646910
			CHANNELS 3 Zrotation Xrotation Yrotation
			JOINT lShin
			{
				OFFSET 2.185763 -45.093132 -0.705710
				CHANNELS 3 Zrotation Xrotation Yrotation
				JOINT lFoot
				{
					OFFSET 0.730976 -46.379768 -2.264282
					CHANNELS 3 Zrotation Xrotation Yrotation
					JOINT lToe
					{
						OFFSET 2.797621 -4.200020 10.742415
						CHANNELS 3 Zrotation Xrotation Yrotation
						JOINT lBigToe
						{
							OFFSET -2.433708 -0.269072 1.841711
							CHANNELS 3 Zrotation Xrotation Yrotation
							End Site
							{
								OFFSET -10.527346 -33.657166 -1.340707
							}
						}
					}
				}
			}
		}
		JOINT rThigh
		{
			OFFSET -8.341582 -7.629402 -0.646910
			CHANNELS 3 Zrotation Xrotation Yrotation
			JOINT rShin
			{
				OFFSET -2.185763 -45.093132 -0.705710
				CHANNELS 3 Zrotation Xrotation Yrotation
				JOINT rFoot
				{
					OFFSET -0.730976 -46.379768 -2.264282
					CHANNELS 3 Zrotation Xrotation Yrotation
					JOINT rToe
					{
						OFFSET -2.797621 -4.200019 10.742415
						CHANNELS 3 Zrotation Xrotation Yrotation
						JOINT rBigToe
						{
							OFFSET 2.433708 -0.269072 1.841711
							CHANNELS 3 Zrotation Xrotation Yrotation
							End Site
							{
								OFFSET 0.000000 24.298409 -0.425647
							}
						}
					}
				}
			}
		}
	}
	JOINT abdomen
	{
		OFFSET 0.000000 1.841293 -3.551421
		CHANNELS 3 Zrotation Xrotation Yrotation
		JOINT abdomen2
		{
			OFFSET 0.000000 5.439911 3.419600
			CHANNELS 3 Zrotation Xrotation Yrotation
			JOINT chest
			{
				OFFSET 0.000000 14.715073 -2.918270
				CHANNELS 3 Zrotation Xrotation Yrotation
				JOINT neck
				{
					OFFSET 0.000000 26.294655 -1.248052
					CHANNELS 3 Zrotation Xrotation Yrotation
					JOINT head
					{
						OFFSET 0.000000 8.807068 1.063695
						CHANNELS 3 Zrotation Xrotation Yrotation
						JOINT rEye
						{
							OFFSET -3.030866 6.632080 7.702687
							CHANNELS 3 Zrotation Xrotation Yrotation
							End Site
							{
								OFFSET 2.969555 -11.022598 8.626689
							}
						}
						JOINT lEye
						{
							OFFSET 3.030866 6.632080 7.702687
							CHANNELS 3 Zrotation Xrotation Yrotation
							End Site
							{
								OFFSET 0.000000 -15.881760 10.104412
							}
						}
						JOINT upperJaw
						{
							OFFSET 0.000000 1.922699 2.891887
							CHANNELS 3 Zrotation Xrotation Yrotation
							End Site
							{
								OFFSET 0.000000 -19.386169 10.230839
							}
						}
						JOINT lowerJaw
						{
							OFFSET 0.000000 1.857620 2.686640
							CHANNELS 3 Zrotation Xrotation Yrotation
							JOINT tongueBase
							{
								OFFSET 0.000000 -3.019135 2.746916
								CHANNELS 3 Zrotation Xrotation Yrotation
								JOINT tongue01
								{
									OFFSET 0.000000 0.664124 0.223355
									CHANNELS 3 Zrotation Xrotation Yrotation
									JOINT tongue02
									{
										OFFSET 0.000000 0.339737 0.715627
										CHANNELS 3 Zrotation Xrotation Yrotation
										JOINT tongue03
										{
											OFFSET 0.000000 0.123444 0.730634
											CHANNELS 3 Zrotation Xrotation Yrotation
											JOINT tongue04
											{
												OFFSET 0.000000 0.017212 0.737415
												CHANNELS 3 Zrotation Xrotation Yrotation
												JOINT tongue05
												{
													OFFSET 0.000000 -0.021011 0.632440
													CHANNELS 3 Zrotation Xrotation Yrotation
													JOINT tongueTip
													{
														OFFSET 0.000000 -0.014404 0.601796
														CHANNELS 3 Zrotation Xrotation Yrotation
														End Site
														{
															OFFSET -14.139406 -2.625778 0.472826
														}
													}
												}
											}
										}
									}
								}
							}
						}
					}
				}
				JOINT rCollar
				{
					OFFSET -2.109295 21.452370 3.768136
					CHANNELS 3 Zrotation Xrotation Yrotation
					JOINT rShldr
					{
						OFFSET -11.491621 -2.568573 -4.940255
						CHANNELS 3 Zrotation Xrotation Yrotation
						JOINT rForeArm
						{
							OFFSET -28.789030 -0.213806 2.098380
							CHANNELS 3 Zrotation Xrotation Yrotation
							JOINT rHand
							{
								OFFSET -22.260895 -0.869583 10.391586
								CHANNELS 3 Zrotation Xrotation Yrotation
								JOINT rThumb1
								{
									OFFSET -0.628075 0.137405 2.362409
									CHANNELS 3 Zrotation Xrotation Yrotation
									JOINT rThumb2
									{
										OFFSET 0.085205 -0.600235 3.826079
										CHANNELS 3 Zrotation Xrotation Yrotation
										JOINT rThumb3
										{
											OFFSET -1.255478 -0.879211 2.439162
											CHANNELS 3 Zrotation Xrotation Yrotation
											End Site
											{
												OFFSET -2.963715 0.538574 4.059553
											}
										}
									}
								}
								JOINT rCarpal1
								{
									OFFSET -0.855530 1.026047 1.621985
									CHANNELS 3 Zrotation Xrotation Yrotation
									JOINT rIndex1
									{
										OFFSET -3.951324 0.390884 3.873290
										CHANNELS 3 Zrotation Xrotation Yrotation
										JOINT rIndex2
										{
											OFFSET -3.071884 -1.259598 2.506104
											CHANNELS 3 Zrotation Xrotation Yrotation
											JOINT rIndex3
											{
												OFFSET -1.394112 -1.446640 1.203302
												CHANNELS 3 Zrotation Xrotation Yrotation
												End Site
												{
													OFFSET -3.392448 -1.258026 0.533405
												}
											}
										}
									}
									JOINT rMid1
									{
										OFFSET -5.422974 0.107910 2.002650
										CHANNELS 3 Zrotation Xrotation Yrotation
										JOINT rMid2
										{
											OFFSET -3.599533 -1.323776 2.090647
											CHANNELS 3 Zrotation Xrotation Yrotation
											JOINT rMid3
											{
												OFFSET -1.360191 -1.598495 1.068055
												CHANNELS 3 Zrotation Xrotation Yrotation
												End Site
												{
													OFFSET -4.087769 -0.460876 0.069540
												}
											}
										}
									}
								}
								JOINT rCarpal2
								{
									OFFSET -1.942749 0.556229 -0.337217
									CHANNELS 3 Zrotation Xrotation Yrotation
									JOINT rRing1
									{
										OFFSET -4.762787 -0.121170 2.349089
										CHANNELS 3 Zrotation Xrotation Yrotation
										JOINT rRing2
										{
											OFFSET -3.380348 -1.337097 1.356700
											CHANNELS 3 Zrotation Xrotation Yrotation
											JOINT rRing3
											{
												OFFSET -1.430290 -1.499649 0.914224
												CHANNELS 3 Zrotation Xrotation Yrotation
												End Site
												{
													OFFSET -1.783272 -2.215851 -0.391895
												}
											}
										}
									}
									JOINT rPinky1
									{
										OFFSET -5.232559 -1.313721 0.336493
										CHANNELS 3 Zrotation Xrotation Yrotation
										JOINT rPinky2
										{
											OFFSET -2.217606 -1.389603 0.800693
											CHANNELS 3 Zrotation Xrotation Yrotation
											JOINT rPinky3
											{
												OFFSET -0.886887 -1.462280 0.774199
												CHANNELS 3 Zrotation Xrotation Yrotation
												End Site
												{
													OFFSET 14.139406 -2.625778 0.472826
												}
											}
										}
									}
								}
							}
						}
					}
				}
				JOINT lCollar
				{
					OFFSET 2.109295 21.452370 3.768136
					CHANNELS 3 Zrotation Xrotation Yrotation
					JOINT lShldr
					{
						OFFSET 11.491621 -2.568573 -4.940255
						CHANNELS 3 Zrotation Xrotation Yrotation
						JOINT lForeArm
						{
							OFFSET 28.789030 -0.213806 2.098380
							CHANNELS 3 Zrotation Xrotation Yrotation
							JOINT lHand
							{
								OFFSET 22.260895 -0.869583 10.391586
								CHANNELS 3 Zrotation Xrotation Yrotation
								JOINT lThumb1
								{
									OFFSET 0.628075 0.137405 2.362409
									CHANNELS 3 Zrotation Xrotation Yrotation
									JOINT lThumb2
									{
										OFFSET -0.085205 -0.600235 3.826079
										CHANNELS 3 Zrotation Xrotation Yrotation
										JOINT lThumb3
										{
											OFFSET 1.255478 -0.879211 2.439162
											CHANNELS 3 Zrotation Xrotation Yrotation
											End Site
											{
												OFFSET 2.963715 0.538574 4.059553
											}
										}
									}
								}
								JOINT lCarpal1
								{
									OFFSET 0.855530 1.026047 1.621985
									CHANNELS 3 Zrotation Xrotation Yrotation
									JOINT lIndex1
									{
										OFFSET 3.951324 0.390884 3.873290
										CHANNELS 3 Zrotation Xrotation Yrotation
										JOINT lIndex2
										{
											OFFSET 3.071884 -1.259598 2.506104
											CHANNELS 3 Zrotation Xrotation Yrotation
											JOINT lIndex3
											{
												OFFSET 1.394112 -1.446640 1.203302
												CHANNELS 3 Zrotation Xrotation Yrotation
												End Site
												{
													OFFSET 3.392448 -1.258026 0.533405
												}
											}
										}
									}
									JOINT lMid1
									{
										OFFSET 5.422974 0.107910 2.002650
										CHANNELS 3 Zrotation Xrotation Yrotation
										JOINT lMid2
										{
											OFFSET 3.599533 -1.323776 2.090647
											CHANNELS 3 Zrotation Xrotation Yrotation
											JOINT lMid3
											{
												OFFSET 1.360191 -1.598495 1.068055
												CHANNELS 3 Zrotation Xrotation Yrotation
												End Site
												{
													OFFSET 4.087769 -0.460876 0.069540
												}
											}
										}
									}
								}
								JOINT lCarpal2
								{
									OFFSET 1.942749 0.556229 -0.337217
									CHANNELS 3 Zrotation Xrotation Yrotation
									JOINT lRing1
									{
										OFFSET 4.762787 -0.121170 2.349089
										CHANNELS 3 Zrotation Xrotation Yrotation
										JOINT lRing2
										{
											OFFSET 3.380348 -1.337097 1.356700
											CHANNELS 3 Zrotation Xrotation Yrotation
											JOINT lRing3
											{
												OFFSET 1.430290 -1.499649 0.914224
												CHANNELS 3 Zrotation Xrotation Yrotation
												End Site
												{
													OFFSET 1.783272 -2.215851 -0.391895
												}
											}
										}
									}
									JOINT lPinky1
									{
										OFFSET 5.232559 -1.313721 0.336493
										CHANNELS 3 Zrotation Xrotation Yrotation
										JOINT lPinky2
										{
											OFFSET 2.217606 -1.389603 0.800693
											CHANNELS 3 Zrotation Xrotation Yrotation
											JOINT lPinky3
											{
												OFFSET 0.886887 -1.462280 0.774199
												CHANNELS 3 Zrotation Xrotation Yrotation
												End Site
												{
													OFFSET -10.295957 -17.050110 17.461308
												}
											}
										}
									}
								}
							}
						}
					}
				}
				JOINT rPectoral
				{
					OFFSET -6.358840 6.360771 6.369920
					CHANNELS 3 Zrotation Xrotation Yrotation
					End Site
					{
						OFFSET 10.295957 -17.050110 17.461308
					}
				}
				JOINT lPectoral
				{
					OFFSET 6.358840 6.360771 6.369920
					CHANNELS 3 Zrotation Xrotation Yrotation
					End Site
					{
						OFFSET 10.295957 -17.050110 17.461308
					}
				}
			}
		}
	}
}
MOTION
Frames:	4
Frame Time:	0.0333333
0.000000 1.054437 0.000000 -0.680521 -3.569209 4.379445 0.000000 0.000000 0.000000 -3.701649 -0.360265 -3.143811 -0.606300 11.585032 -4.850685 9.535791 -20.230661 -8.886300 4.838871 -8.243439 1.623998 0.000000 0.000000 0.000000 -0.017536 -23.049408 0.533148 -1.876875 53.748436 -3.497341 -0.368232 -6.834511 0.747917 -4.587943 -9.410387 -1.544437 0.000000 0.000000 0.000000 7.061372 -7.360246 -3.433829 0.000000 0.000000 0.000000 -5.917996 4.328201 -1.401379 -0.035369 -10.793448 -0.833858 -4.727661 12.442970 0.660597 0.000000 0.000000 0.000000 0.000000 0.000000 0.000000 0.000000 0.000000 0.000000 0.000000 0.000000 0.000000 0.000000 0.000000 0.000000 0.000000 0.000000 0.000000 0.000000 0.000000 0.000000 0.000000 0.000000 0.000000 0.000000 0.000000 0.000000 0.000000 0.000000 0.000000 0.000000 0.000000 0.000000 7.864927 -0.530526 -6.945263 56.256432 24.309980 -4.944154 -0.636448 1.445135 -16.579763 1.390247 0.939682 -1.313613 -20.278101 15.997745 -11.245070 -5.406475 -14.233100 9.902917 -16.386185 20.674324 16.306753 0.000000 0.000000 0.000000 -10.344722 -8.555511 -17.047894 -7.447639 -4.503490 -1.783426 -12.634918 -9.968566 -2.356016 -8.647417 -3.307343 -7.176109 -0.594737 3.049747 -3.815813 0.477367 4.595480 -2.175193 0.000000 0.000000 0.000000 -4.053409 -6.935108 0.570711 16.377953 9.700567 -7.263687 1.274629 8.359100 -3.952725 -18.864351 -24.497574 -13.525259 48.465355 21.906361 -10.696066 34.311016 26.749933 -1.842245 -8.645298 -0.440781 6.238447 -58.023392 7.432350 0.628048 -2.203381 -10.207809 12.771510 -4.783716 1.966813 7.917951 15.319375 21.766415 8.847219 9.897357 -11.660407 7.278462 18.869974 24.455250 -9.597977 0.000000 0.000000 0.000000 11.364023 -8.970807 17.507399 7.742449 -6.475732 0.297233 7.669960 -5.979775 1.302682 9.657770 -3.689982 7.578338 1.672497 2.702245 3.958704 -3.523009 6.268773 1.440409 0.000000 0.000000 0.000000 5.501368 -6.680588 1.170439 -14.897585 10.505441 6.875091 -11.617700 10.916432 0.445627 20.891180 -24.279835 15.016870 -47.080284 22.724037 10.346928 -40.793648 22.744884 -2.181902 0.228797 -0.011898 -0.671899 -0.206991 -0.010648 0.607846 
-0.418778 1.306214 2.258425 -1.033309 -3.558532 4.321835 0.000000 0.000000 0.000000 -3.037952 2.673404 -2.684500 -0.325057 8.241653 -6.165149 11.948846 -20.166496 -8.930032 5.024133 -7.939680 1.518952 0.000000 0.000000 0.000000 1.141160 -24.976301 0.538470 -2.877955 47.362511 -3.309199 -0.158933 -7.551441 0.521404 -3.997041 -8.022117 -1.489422 0.000000 0.000000 0.000000 4.479229 -6.374156 -4.077112 0.000000 0.000000 0.000000 -1.567059 3.639927 -2.769702 1.168551 -10.371958 -0.617340 -6.542505 11.892932 1.741565 0.000000 0.000000 0.000000 0.000000 0.000000 0.000000 0.000000 0.000000 0.000000 0.000000 0.000000 0.000000 0.000000 0.000000 0.000000 0.000000 0.000000 0.000000 0.000000 0.000000 0.000000 0.000000 0.000000 0.000000 0.000000 0.000000 0.000000 0.000000 0.000000 0.000000 0.000000 0.000000 0.000000 7.775408 -0.664167 -8.023862 55.891563 19.963743 -9.181890 0.205431 5.784387 -15.274431 1.422332 0.977568 -3.157906 -20.278101 15.997745 -11.245070 -5.406475 -14.233100 9.902917 -16.386185 20.674324 16.306753 0.000000 0.000000 0.000000 -10.344722 -8.555511 -17.047894 -7.447639 -4.503490 -1.783426 -12.634918 -9.968566 -2.356016 -8.647417 -3.307343 -7.176109 -0.594737 3.049747 -3.815813 0.477367 4.595480 -2.175193 0.000000 0.000000 0.000000 -4.053409 -6.935108 0.570711 16.377953 9.700567 -7.263687 1.274629 8.359100 -3.952725 -18.864351 -24.497574 -13.525259 48.465355 21.906361 -10.696066 34.311016 26.749933 -1.842245 -7.627061 -0.367816 5.871414 -58.772022 10.496028 -2.933807 -1.311630 -12.445604 13.455628 -4.645421 2.057030 6.788314 15.319375 21.766415 8.847219 9.897357 -11.660407 7.278462 18.869974 24.455250 -9.597977 0.000000 0.000000 0.000000 11.364023 -8.970807 17.507399 7.742449 -6.475732 0.297233 7.669960 -5.979775 1.302682 9.657770 -3.689982 7.578338 1.672497 2.702245 3.958704 -3.523009 6.268773 1.440409 0.000000 0.000000 0.000000 5.501368 -6.680588 1.170439 -14.897585 10.505441 6.875091 -11.617700 10.916432 0.445627 20.891180 -24.279835 15.016870 -47.080284 22.724037 10.346928 -40.793648 22.744884 -2.181902 0.263590 -0.013943 -0.774110 -0.193685 -0.009897 0.568763 
-1.152962 1.520921 5.344883 -1.460797 -2.658928 5.036842 0.000000 0.000000 0.000000 -2.076529 6.407568 -3.182950 0.071443 2.444860 -5.502442 10.555128 -18.692759 -9.058807 4.611228 -8.650644 1.663300 0.000000 0.000000 0.000000 1.900281 -26.647335 -0.332737 -2.763152 35.604534 -3.920392 1.001762 -5.535640 1.328052 -4.998291 -2.697083 -1.334098 0.000000 0.000000 0.000000 0.685157 -7.721610 -5.043540 0.000000 0.000000 0.000000 3.771466 5.515345 -4.893511 3.614037 -11.484395 -0.653411 -9.050664 11.370708 3.040002 0.000000 0.000000 0.000000 0.000000 0.000000 0.000000 0.000000 0.000000 0.000000 0.000000 0.000000 0.000000 0.000000 0.000000 0.000000 0.000000 0.000000 0.000000 0.000000 0.000000 0.000000 0.000000 0.000000 0.000000 0.000000 0.000000 0.000000 0.000000 0.000000 0.000000 0.000000 0.000000 0.000000 7.469950 -0.807907 -9.258698 55.058819 15.692926 -14.224296 1.190014 5.765499 -12.668620 -0.535869 0.098503 -4.862119 -20.278101 15.997745 -11.245070 -5.406475 -14.233100 9.902917 -16.386185 20.674324 16.306753 0.000000 0.000000 0.000000 -10.344722 -8.555511 -17.047894 -7.447639 -4.503490 -1.783426 -12.634918 -9.968566 -2.356016 -8.647417 -3.307343 -7.176109 -0.594737 3.049747 -3.815813 0.477367 4.595480 -2.175193 0.000000 0.000000 0.000000 -4.053409 -6.935108 0.570711 16.377953 9.700567 -7.263687 1.274629 8.359100 -3.952725 -18.864351 -24.497574 -13.525259 48.465355 21.906361 -10.696066 34.311016 26.749933 -1.842245 -5.279208 -0.322019 5.595459 -59.075092 15.041465 -9.163759 -0.587968 -15.712159 14.745584 -3.622480 1.621303 5.371663 15.319375 21.766415 8.847219 9.897357 -11.660407 7.278462 18.869974 24.455250 -9.597977 0.000000 0.000000 0.000000 11.364023 -8.970807 17.507399 7.742449 -6.475732 0.297233 7.669960 -5.979775 1.302682 9.657770 -3.689982 7.578338 1.672497 2.702245 3.958704 -3.523009 6.268773 1.440409 0.000000 0.000000 0.000000 5.501368 -6.680588 1.170439 -14.897585 10.505441 6.875091 -11.617700 10.916432 0.445627 20.891180 -24.279835 15.016870 -47.080284 22.724037 10.346928 -40.793648 22.744884 -2.181902 0.303152 -0.016344 -0.890339 -0.182295 -0.009262 0.535309 
-1.812322 1.389651 7.798302 -1.605884 -2.153672 5.042861 0.000000 0.000000 0.000000 -1.446629 9.968167 -3.330609 0.353317 -3.139888 -4.250339 10.420763 -17.761137 -9.135771 4.691368 -8.523074 1.643593 0.000000 0.000000 0.000000 2.862556 -26.611780 0.032410 -2.861679 25.213820 -6.347896 3.058776 -3.893348 3.015637 -8.339474 8.742658 -0.705024 0.000000 0.000000 0.000000 -2.006460 -6.827844 -6.052297 0.000000 0.000000 0.000000 7.505918 4.484930 -6.335790 4.694349 -10.974006 -0.208875 -10.003103 10.586154 4.045584 0.000000 0.000000 0.000000 0.000000 0.000000 0.000000 0.000000 0.000000 0.000000 0.000000 0.000000 0.000000 0.000000 0.000000 0.000000 0.000000 0.000000 0.000000 0.000000 0.000000 0.000000 0.000000 0.000000 0.000000 0.000000 0.000000 0.000000 0.000000 0.000000 0.000000 0.000000 0.000000 0.000000 7.204442 -0.915133 -10.190134 53.895245 14.436545 -17.392931 1.111196 4.141392 -11.758271 1.314905 1.014591 -5.601286 -20.278101 15.997745 -11.245070 -5.406475 -14.233100 9.902917 -16.386185 20.674324 16.306753 0.000000 0.000000 0.000000 -10.344722 -8.555511 -17.047894 -7.447639 -4.503490 -1.783426 -12.634918 -9.968566 -2.356016 -8.647417 -3.307343 -7.176109 -0.594737 3.049747 -3.815813 0.477367 4.595480 -2.175193 0.000000 0.000000 0.000000 -4.053409 -6.935108 0.570711 16.377953 9.700567 -7.263687 1.274629 8.359100 -3.952725 -18.864351 -24.497574 -13.525259 48.465355 21.906361 -10.696066 34.311016 26.749933 -1.842245 -4.525718 -0.298047 5.432120 -58.029655 16.218599 -12.650348 -0.728160 -16.520559 15.504014 -4.025043 1.862427 4.728877 15.319375 21.766415 8.847219 9.897357 -11.660407 7.278462 18.869974 24.455250 -9.597977 0.000000 0.000000 0.000000 11.364023 -8.970807 17.507399 7.742449 -6.475732 0.297233 7.669960 -5.979775 1.302682 9.657770 -3.689982 7.578338 1.672497 2.702245 3.958704 -3.523009 6.268773 1.440409 0.000000 0.000000 0.000000 5.501368 -6.680588 1.170439 -14.897585 10.505441 6.875091 -11.617700 10.916432 0.445627 20.891180 -24.279835 15.016870 -47.080284 22.724037 10.346928 -40.793648 22.744884 -2.181902 0.332957 -0.018206 -0.977913 -0.176440 -0.008938 0.518111 
